<svg width="32" height="32" viewBox="0 0 32 32" fill="none" xmlns="http://www.w3.org/2000/svg">
<path d="M16 0C7.16342 0 0 7.16374 0 16C0 24.8363 7.16342 32 16 32C24.8366 32 32 24.8363 32 16C32 7.16374 24.8366 0 16 0ZM19.4884 9.44385H25.4772V11.2313H19.4884V9.44385ZM16.4616 18.8189C16.4616 23.2492 11.851 23.1035 11.851 23.1035H7.62566H7.50159H4.29766V8.58877H7.50159H7.62566H11.8506C14.1461 8.58877 15.9581 9.856 15.9581 12.4533C15.9581 15.051 13.7431 15.2156 13.7431 15.2156C16.6629 15.2156 16.4616 18.8189 16.4616 18.8189ZM22.6963 21.1082C25.109 21.1082 25.0235 19.5467 25.0235 19.5467H27.5779C27.5779 23.6908 22.6112 23.407 22.6112 23.407C16.6508 23.407 17.0341 17.8581 17.0341 17.8581C17.0341 17.8581 17.0296 12.2818 22.6105 12.2818C28.4857 12.2818 27.6631 18.5819 27.6631 18.5819H20.1418C20.1418 21.2791 22.6963 21.1082 22.6963 21.1082Z" fill="white"/>
</svg>
