<svg width="18" height="32" viewBox="0 0 18 32" fill="none" xmlns="http://www.w3.org/2000/svg">
<path d="M16.9987 0.00665807L12.849 0C8.18703 0 5.17426 3.09101 5.17426 7.87516V11.5061H1.00198C0.641444 11.5061 0.349487 11.7984 0.349487 12.159V17.4198C0.349487 17.7804 0.641777 18.0723 1.00198 18.0723H5.17426V31.3472C5.17426 31.7077 5.46621 31.9997 5.82675 31.9997H11.2704C11.6309 31.9997 11.9229 31.7074 11.9229 31.3472V18.0723H16.8012C17.1618 18.0723 17.4537 17.7804 17.4537 17.4198L17.4557 12.159C17.4557 11.9859 17.3868 11.8201 17.2646 11.6976C17.1425 11.575 16.976 11.5061 16.8029 11.5061H11.9229V8.42811C11.9229 6.94869 12.2754 6.19766 14.2026 6.19766L16.998 6.19666C17.3582 6.19666 17.6501 5.90437 17.6501 5.54417V0.659149C17.6501 0.29928 17.3585 0.00732387 16.9987 0.00665807Z" fill="white"/>
</svg>
