<svg width="32" height="28" viewBox="0 0 32 28" fill="none" xmlns="http://www.w3.org/2000/svg">
<path d="M11.9382 27.1275C10.5544 27.1275 9.13009 27.0155 7.69724 26.7909C5.17356 26.3949 2.61889 25.0748 1.89599 24.6796L0 23.6429L2.05273 22.9679C4.29661 22.2301 5.6616 21.7723 7.35129 21.0555C5.6594 20.2362 4.35545 18.7623 3.72777 16.8571L3.25023 15.4074L3.64183 15.4672C3.27049 15.0929 2.97728 14.713 2.74999 14.3676C1.94164 13.1398 1.51367 11.6396 1.60473 10.3539L1.69457 9.08855L2.45214 9.38201C2.13256 8.7785 1.9016 8.13397 1.76586 7.45843C1.43505 5.81098 1.71191 4.06074 2.54564 2.53023L3.20555 1.31881L4.08812 2.37886C6.87937 5.73188 10.4148 7.72088 14.6108 8.30316C14.4394 7.12177 14.5678 5.98163 14.9929 4.95966C15.4877 3.76973 16.3681 2.7607 17.538 2.04146C18.8373 1.24288 20.413 0.855921 21.9748 0.951868C23.6317 1.05367 25.1361 1.67452 26.331 2.74849C26.9144 2.59688 27.3444 2.43502 27.9254 2.21627C28.275 2.08468 28.6715 1.93526 29.1676 1.76436L30.9957 1.13448L29.8036 4.53926C29.8822 4.53266 29.9633 4.52705 30.048 4.52339L32.0001 4.43501L30.8463 6.01191C30.7802 6.10224 30.7633 6.12787 30.7399 6.16327C30.6469 6.30341 30.5311 6.47773 28.9474 8.59246C28.5509 9.122 28.3529 9.8117 28.3898 10.5348C28.5302 13.2829 28.193 15.7692 27.3871 17.9245C26.6249 19.9635 25.4437 21.713 23.8769 23.1244C21.9379 24.8705 19.4655 26.066 16.528 26.6774C15.0871 26.9772 13.5397 27.1275 11.9382 27.1275Z" fill="white"/>
</svg>
