<svg width="32" height="32" viewBox="0 0 32 32" fill="none" xmlns="http://www.w3.org/2000/svg">
<path d="M16 0C7.16342 0 0 7.16342 0 16C0 24.8366 7.16342 32 16 32C24.8366 32 32 24.8366 32 16C32 7.16342 24.8366 0 16 0ZM17.7796 7.48358H18.8667V11.9135C18.8667 12.1692 18.8667 12.3017 18.8798 12.3374C18.9037 12.5064 18.9895 12.5928 19.1355 12.5928C19.3535 12.5928 19.5824 12.4239 19.8243 12.0824V7.48358H20.9144V13.5002H19.8243V12.8442C19.3902 13.3418 18.9764 13.5831 18.5787 13.5831C18.2277 13.5831 17.9855 13.4407 17.8761 13.1362C17.8159 12.9539 17.7796 12.6661 17.7796 12.2415V7.48358ZM13.662 9.44548C13.662 8.80221 13.7713 8.33211 14.0031 8.02799C14.3046 7.61649 14.7292 7.41091 15.2726 7.41091C15.8186 7.41091 16.2429 7.61649 16.5444 8.02799C16.7729 8.33179 16.8822 8.80221 16.8822 9.44548V11.5524C16.8822 12.1921 16.7729 12.6664 16.5444 12.9673C16.2429 13.3778 15.8186 13.5831 15.2726 13.5831C14.7292 13.5831 14.3046 13.3778 14.0031 12.9673C13.7713 12.6664 13.662 12.1918 13.662 11.5524V9.44548ZM10.7464 5.42641L11.6048 8.59695L12.4294 5.42641H13.6521L12.1976 10.2305V13.5006H10.989V10.2305C10.8793 9.65107 10.6374 8.80221 10.2495 7.67607C9.9948 6.92673 9.72931 6.1751 9.47462 5.42641H10.7464ZM24.6133 24.5724C24.3946 25.5214 23.6185 26.222 22.6838 26.3264C20.4699 26.5736 18.2303 26.5749 15.999 26.5736C13.7687 26.5749 11.5279 26.5736 9.31454 26.3264C8.37991 26.222 7.6034 25.5218 7.38537 24.5724C7.07405 23.2207 7.07405 21.7446 7.07405 20.3527C7.07405 18.9607 7.07797 17.4849 7.38897 16.1329C7.60732 15.1835 8.38318 14.483 9.31781 14.3789C11.5315 14.1317 13.7719 14.1304 16.0029 14.1317C18.2333 14.1304 20.4738 14.1317 22.6874 14.3789C23.6221 14.4833 24.3986 15.1835 24.6176 16.1329C24.9279 17.4849 24.926 18.9607 24.926 20.3527C24.926 21.7446 24.9246 23.2207 24.6133 24.5724Z" fill="white"/>
</svg>
